<svg xmlns="http://www.w3.org/2000/svg" xmlns:xlink="http://www.w3.org/1999/xlink" width="74" height="73" viewBox="0 0 74 73">
  <defs>
    <filter id="Ellipse_1" x="0" y="0" width="74" height="73" filterUnits="userSpaceOnUse">
      <feOffset dy="3" input="SourceAlpha"/>
      <feGaussianBlur stdDeviation="3" result="blur"/>
      <feFlood flood-opacity="0.161"/>
      <feComposite operator="in" in2="blur"/>
      <feComposite in="SourceGraphic"/>
    </filter>
    <filter id="Ellipse_1-2" x="0" y="0" width="74" height="73" filterUnits="userSpaceOnUse">
      <feOffset dy="3" input="SourceAlpha"/>
      <feGaussianBlur stdDeviation="5" result="blur-2"/>
      <feFlood flood-opacity="0.09" result="color"/>
      <feComposite operator="out" in="SourceGraphic" in2="blur-2"/>
      <feComposite operator="in" in="color"/>
      <feComposite operator="in" in2="SourceGraphic"/>
    </filter>
  </defs>
  <g id="Caution" transform="translate(8.747 5.504)">
    <g id="Group_1" data-name="Group 1" transform="translate(0 0)">
      <g data-type="innerShadowGroup">
        <g transform="matrix(1, 0, 0, 1, -8.75, -5.5)" filter="url(#Ellipse_1)">
          <ellipse id="Ellipse_1-3" data-name="Ellipse 1" cx="28" cy="27.5" rx="28" ry="27.5" transform="translate(9 6)" fill="#fb0"/>
        </g>
        <g transform="matrix(1, 0, 0, 1, -8.75, -5.5)" filter="url(#Ellipse_1-2)">
          <ellipse id="Ellipse_1-4" data-name="Ellipse 1" cx="28" cy="27.5" rx="28" ry="27.5" transform="translate(9 6)" fill="#fff"/>
        </g>
      </g>
    </g>
    <g id="Group_242" data-name="Group 242" transform="translate(24.33 9.138)">
      <path id="Path_343" data-name="Path 343" d="M3.562-2.833A3.5,3.5,0,0,1,7.125.486L5.344,26.423c0,1.17.186,3.212-1.781,3.212s-1.781-2.043-1.781-3.212L0,.486A3.5,3.5,0,0,1,3.562-2.833Z" transform="translate(0 2.833)" fill="#262626"/>
      <circle id="Ellipse_18" data-name="Ellipse 18" cx="1.88" cy="1.88" r="1.88" transform="translate(1.682 33.434)" fill="#262626"/>
    </g>
  </g>
</svg>
